{"title":"The.Bourne.Legacy.2012.720p.BluRay.x264.DTS.5.1","uid":7870714,"size":5985492032,"categoryP":"video","categoryS":"hd___movies","magnet":"?xt=urn:btih:44fad60c8c4f19f770db1908dee1cb39498c43d8&amp;dn=The.Bourne.Legacy.2012.720p.BluRay.x264.DTS.5.1&amp;tr=udp%3A%2F%2Ftracker.openbittorrent.com%3A80&amp;tr=udp%3A%2F%2Fopen.demonii.com%3A1337&amp;tr=udp%3A%2F%2Ftracker.coppersurfer.tk%3A6969&amp;tr=udp%3A%2F%2Fexodus.desync.com%3A6969","seeders":3,"leechers":0,"uploader":"tyl3rdurd3n","files":-1,"time":1354196666,"description":"Format : Matroska\nFormat version : Version 2\nFile size : 5.57 GiB\nDuration : 2h 15mn\nOverall bit rate : 5 910 Kbps\n\nVideo\nID : 1\nFormat : AVC\nFormat/Info : Advanced Video Codec\nFormat profile : &lt;a class=&quot;__cf_email__&quot; href=&quot;/cdn-cgi/l/email-protection&quot; data-cfemail=&quot;743c1d131c3438405a45&quot;&gt;[email&amp;#160;protected]&lt;/a&gt;&lt;script cf-hash='f9e31' type=&quot;text/javascript&quot;&gt;\n/* &lt;![CDATA[ */!function(){try{var t=&quot;currentScript&quot;in document?document.currentScript:function(){for(var t=document.getElementsByTagName(&quot;script&quot;),e=t.length;e--;)if(t[e].getAttribute(&quot;cf-hash&quot;))return t[e]}();if(t&amp;&amp;t.previousSibling){var e,r,n,i,c=t.previousSibling,a=c.getAttribute(&quot;data-cfemail&quot;);if(a){for(e=&quot;&quot;,r=parseInt(a.substr(0,2),16),n=2;a.length-n;n+=2)i=parseInt(a.substr(n,2),16)^r,e+=String.fromCharCode(i);e=document.createTextNode(e),c.parentNode.replaceChild(e,c)}}}catch(u){}}();/* ]]&gt; */&lt;/script&gt;\nFormat settings, CABAC : Yes\nFormat settings, ReFrames : 5 frames\nMuxing mode : Header stripping\nCodec ID : V_MPEG4/ISO/AVC\nDuration : 2h 15mn\nBit rate : 4 283 Kbps\nWidth : 1 280 pixels\nHeight : 536 pixels\nDisplay aspect ratio : 2.40:1\nFrame rate : 23.976 fps\nColor space : YUV\nChroma subsampling : 4:2:0\nBit depth : 8 bits\nScan type : Progressive\nBits/(Pixel*Frame) : 0.260\n\nAudio #2\nID : 3\nFormat : DTS\nFormat/Info : Digital Theater Systems\nMuxing mode : Header stripping\nCodec ID : A_DTS\nDuration : 2h 15mn\nBit rate mode : Constant\nBit rate : 1 510 Kbps\nChannel(s) : 6 channels\nChannel positions : Front: L C R, Side: L R, LFE\nSampling rate : 48.0 KHz\nBit depth : 24 bits\nCompression mode : Lossy\nStream size : 1.42 GiB (26%)\nLanguage : English\nDefault : No\nForced : No \n\nAudio #1\nID : 2\nFormat : MPEG Audio\nFormat version : Version 1\nFormat profile : Layer 3\nMode : Joint stereo\nMode extension : MS Stereo\nMuxing mode : Header stripping\nCodec ID : A_MPEG/L3\nCodec ID/Hint : MP3\nDuration : 2h 15mn\nBit rate mode : Constant\nBit rate : 128 Kbps\nChannel(s) : 2 channels\nSampling rate : 48.0 KHz\nCompression mode : Lossy\nDelay relative to video : 14ms\nStream size : 124 MiB (2%)\nDefault : Yes\nForced : Yes \n\nText\nID : 4\nFormat : UTF-8\nCodec ID : S_TEXT/UTF8\nCodec ID/Info : UTF-8 Plain Text\nLanguage : English\nDefault : No\nForced : No \n\n\nYou have to manually select the English audio track (Audio #2) when playing the movie as it's not set as the default audio track. ","torrent":{"xt":"urn:btih:44fad60c8c4f19f770db1908dee1cb39498c43d8","amp;dn":"The.Bourne.Legacy.2012.720p.BluRay.x264.DTS.5.1","amp;tr":["udp%3A%2F%2Ftracker.openbittorrent.com%3A80","udp%3A%2F%2Fopen.demonii.com%3A1337","udp%3A%2F%2Ftracker.coppersurfer.tk%3A6969","udp%3A%2F%2Fexodus.desync.com%3A6969"],"infoHash":"44fad60c8c4f19f770db1908dee1cb39498c43d8","infoHashBuffer":{"type":"Buffer","data":[68,250,214,12,140,79,25,247,112,219,25,8,222,225,203,57,73,140,67,216]},"announce":[],"urlList":[]}}